<?xml version="1.0" encoding="utf-8"?><svg version="1.1" id="Layer_1" xmlns="http://www.w3.org/2000/svg" xmlns:xlink="http://www.w3.org/1999/xlink" x="0px" y="0px" viewBox="0 0 105.29 122.88" style="enable-background:new 0 0 105.29 122.88" xml:space="preserve">
 <g>
  <path d="m43.40788,27.82063l5.788,-5.79004l15.85612,15.85408l26.43165,-26.42346l5.79004,5.78595l-32.22169,32.2176" id="svg_7"/>
  <g stroke="null">
   <g stroke="null">
    <path d="m27.29828,84.64125l-0.36035,10.52116l-3.96383,-2.70007l-3.96383,2.23822l0.81713,-11.27738l-5.61331,-0.77145l0,23.64088l20.67689,2.34988l0,-23.15873l-7.59269,-0.8425l0,0l-0.00001,-0.00001zm34.42088,-30.16776c0.21316,-0.0406 0.4314,0 0.61411,0.11166c0.3096,0.12688 0.52783,0.4314 0.53291,0.79175l0.17764,24.3565l9.07976,1.1927l0,0c0.21316,-0.0406 0.4314,0 0.61411,0.11166c0.3096,0.12688 0.52783,0.4314 0.53291,0.79175l0.17764,24.96554c0.01523,0.30452 -0.13703,0.60904 -0.41618,0.77653l-10.19634,6.08024c-0.14211,0.10658 -0.32482,0.17256 -0.51768,0.17256c-0.04568,0 -0.09643,-0.00508 -0.13703,-0.01015l-26.45769,-2.94369c-0.06598,-0.00508 -0.12688,-0.01523 -0.18779,-0.03045l-22.67149,-2.91324c-0.45678,-0.0203 -0.81713,-0.40095 -0.81713,-0.85773l0,-25.39187l0,0c-0.01015,-0.34005 0.18271,-0.66994 0.51261,-0.81205l11.93717,-5.25297l0,-17.43883l0,0c-0.01015,-0.34005 0.18271,-0.66994 0.51261,-0.81205l13.27199,-5.83663l0,0c0.13703,-0.0609 0.29437,-0.08628 0.45678,-0.06598l22.98109,3.01475l0,0l0,0zm0.50246,26.88402l-7.97842,4.76066l7.92259,1.00999l7.58762,-4.78096l-7.53179,-0.98969l0,0zm-37.72492,-1.66471l0,-2.20269l-8.46565,3.72022l4.85709,0.61919l3.60856,-2.13671l0,0l0,-0.00001zm28.27466,-17.15969l0,22.46341l7.61807,-4.54749l0.92879,-0.78668l-0.16241,-22.41265l-8.38444,5.28342l0,0l0,0l-0.00001,-0.00001zm-2.18239,23.01662l0,-23.23486l-10.82568,-1.44139l-0.3705,10.78507l-3.96383,-2.70007l-3.96383,2.23822l0.81713,-11.27738l-6.07009,-0.77653l0,23.64088l24.3768,2.76605l0,0l0,0l0,0.00001zm-1.32466,-30.97473l-8.32354,4.72513l10.82568,1.38049l7.58762,-4.78096l-10.08975,-1.32466l0,0l0,0l-0.00001,0zm-15.91623,3.75067l8.06977,-4.78604l-2.65947,-0.3502l-10.26739,4.51197l4.85709,0.62427l0,0zm29.82263,30.65499l0,22.46341l8.55193,-5.10071l-0.16749,-22.64612l-8.38444,5.28342l0,0l0,0zm-2.18239,23.01662l0,-23.23486l-10.82568,-1.44139l-0.3705,10.78507l-3.96383,-2.70007l-3.96383,2.23822l0.81713,-11.27738l-5.61331,-0.54814l0,23.64088l23.92003,2.53766l0,0l0,0l-0.00001,0.00001z" stroke="null"/>
   </g>
  </g>
 </g>

</svg>
