<?xml version="1.0" encoding="utf-8"?><svg version="1.1" id="Layer_1" xmlns="http://www.w3.org/2000/svg" xmlns:xlink="http://www.w3.org/1999/xlink" x="0px" y="0px" fill-rule="evenodd" viewBox="0 0 105.29 122.88" style="enable-background:new 0 0 105.29 122.88" xml:space="preserve"><style type="text/css">.st0{fill-rule:evenodd;clip-rule:evenodd;}</style>
 <g>
  <title>Layer 1</title>
  <ellipse stroke="null" cx="54.55958" cy="82.15326" id="svg_6" rx="30.63323" ry="30.63323"/>
  <g id="svg_2">
   <g id="svg_3">
    <path id="svg_5" class="st0" d="m11.10682,122.88l83.08,0c5.37,0 12.22,-6.91 10.95,-12.13l-13.94,-57.29c-3.02,-12.42 -7.24,-19.22 -21.02,-19.22l-10.61,0c6.34,-2.74 10.78,-9.05 10.78,-16.39c0,-9.86 -7.99,-17.85 -17.85,-17.85c-9.86,0 -17.85,7.99 -17.85,17.85c0,7.35 4.44,13.66 10.78,16.39l-9.35,0c-13.73,0 -19.5,7.72 -22.33,19.56l-13.6,56.95c-1.24,5.22 5.59,12.13 10.96,12.13l0,0zm26.2,-51.23l4.44,0l0,5.71l4.66,-5.71l5.92,0l-5.26,5.67l5.5,9.43l-5.47,0l-3.04,-6.2l-2.31,2.52l0,3.68l-4.44,0l0,-15.1l0,0zm22.98,9.64l0,-3.14l6.88,0l0,6.42c-1.32,0.94 -2.48,1.59 -3.49,1.93c-1.01,0.34 -2.21,0.51 -3.6,0.51c-1.71,0 -3.1,-0.31 -4.18,-0.92c-1.08,-0.61 -1.91,-1.52 -2.5,-2.73c-0.59,-1.21 -0.89,-2.59 -0.89,-4.16c0,-1.65 0.33,-3.08 0.97,-4.3c0.65,-1.22 1.6,-2.14 2.85,-2.77c0.98,-0.49 2.29,-0.73 3.94,-0.73c1.59,0 2.78,0.15 3.57,0.45c0.79,0.3 1.44,0.77 1.96,1.41c0.52,0.64 0.91,1.44 1.17,2.42l-4.28,0.81c-0.18,-0.57 -0.48,-1.01 -0.9,-1.31c-0.42,-0.31 -0.96,-0.46 -1.62,-0.46c-0.97,0 -1.75,0.35 -2.33,1.07c-0.58,0.71 -0.87,1.84 -0.87,3.37c0,1.63 0.29,2.8 0.88,3.5c0.58,0.7 1.4,1.05 2.45,1.05c0.5,0 0.97,-0.07 1.42,-0.22c0.45,-0.15 0.97,-0.41 1.55,-0.77l0,-1.41l-2.98,0l0,-0.02zm-7.64,-28.18c14.25,0 25.8,11.55 25.8,25.8s-11.55,25.8 -25.8,25.8c-14.25,0 -25.8,-11.55 -25.8,-25.8s11.56,-25.8 25.8,-25.8l0,0zm-0.15,-42.7c4.11,0 7.44,3.33 7.44,7.44c0,4.11 -3.33,7.44 -7.44,7.44c-4.11,0 -7.44,-3.33 -7.44,-7.44c0.01,-4.11 3.34,-7.44 7.44,-7.44l0,0z" fill-rule="evenodd" clip-rule="evenodd"/>
   </g>
  </g>
  <ellipse stroke="null" fill="#ffffff" cx="76.98117" cy="92.65609" id="svg_4" rx="39.29513" ry="39.29513"/>
  <path d="m76.29819,63.71797c15.31706,0 27.7322,12.41722 27.7322,27.73427c0,15.31498 -12.41514,27.7322 -27.7322,27.7322c-15.31706,0 -27.7322,-12.41722 -27.7322,-27.7322c0,-15.31706 12.41514,-27.73427 27.7322,-27.73427zm-7.14063,23.82146l4.13284,3.87337l9.49246,-9.644c0.92579,-0.94032 1.51116,-1.69797 2.6549,-0.52102l3.71146,3.80487c1.22055,1.20602 1.15828,1.91385 0.0083,3.03477l-13.74778,13.49454c-2.42034,2.37882 -2.00104,2.52205 -4.45874,0.08511l-8.04358,-7.99584c-0.51271,-0.5563 -0.45459,-1.11468 0.10586,-1.67307l4.30721,-4.46704c0.65387,-0.685 1.17073,-0.62688 1.83705,0.0083l0.00002,0.00001z" id="svg_1" stroke="null"/>
 </g>

</svg>
