<?xml version='1.0' encoding='utf-8'?>
<!DOCTYPE svg PUBLIC '-//W3C//DTD SVG 1.1//EN' 'http://www.w3.org/Graphics/SVG/1.1/DTD/svg11.dtd'>
<svg version="1.1" xmlns="http://www.w3.org/2000/svg" viewBox="0 0 512 512" xmlns:xlink="http://www.w3.org/1999/xlink" enable-background="new 0 0 512 512">
  <g>
    <g>
      <path d="m321.4,271.3h-45v-45c0-11.3-9.1-20.4-20.4-20.4s-20.4,9.1-20.4,20.4v45h-45c-11.3,0-20.4,9.1-20.4,20.4 0,11.3 9.1,20.4 20.4,20.4h45v45c0,11.3 9.1,20.4 20.4,20.4s20.4-9.1 20.4-20.4v-45h45c11.3,0 20.4-9.1 20.4-20.4 0.1-11.2-9.1-20.4-20.4-20.4z"/>
      <path d="M269.4,16c-7.7-6.6-19.1-6.6-26.7,0C222.9,33.1,49.9,186.1,49.9,294.9C49.9,408.5,142.4,501,256,501    s206.1-92.5,206.1-206.1C462.1,186.1,289.1,33.1,269.4,16z M256,460.2c-91.1,0-165.3-74.1-165.3-165.3    c0-70.3,109.1-184.7,165.3-236.1c56.2,51.4,165.3,165.8,165.3,236.1C421.3,386,347.1,460.2,256,460.2z"/>
    </g>
  </g>
</svg>
