<?xml version="1.0" encoding="utf-8"?><svg version="1.1" id="Layer_1" xmlns="http://www.w3.org/2000/svg" xmlns:xlink="http://www.w3.org/1999/xlink" x="0px" y="0px" viewBox="0 0 105.29 122.88" style="enable-background:new 0 0 105.29 122.88" xml:space="preserve"><style type="text/css">.st0{fill-rule:evenodd;clip-rule:evenodd;}</style>

 <g>
  <title>Layer 1</title>
  <path id="svg_4" d="m95.20588,15.58145c-7.81556,-7.59149 -16.24508,-13.67275 -23.15988,-14.50181c-0.37644,-0.05378 -0.76632,-0.08515 -1.17861,-0.09411l-45.50864,0c-0.72599,0 -1.44301,0.28233 -1.95389,0.80665c-0.5064,0.51088 -0.80665,1.2279 -0.80665,1.95837l0,115.39602c0,0.72599 0.28233,1.4206 0.80665,1.94941c0.52432,0.51984 1.21446,0.80217 1.95389,0.80217l82.29646,0c0.72599,0 1.4206,-0.27785 1.94493,-0.80217c0.52432,-0.52432 0.81562,-1.21894 0.81562,-1.94941l0,-76.78877c-0.16133,-8.9135 -7.14335,-18.63366 -15.20988,-26.77636zm9.67983,100.79114l-76.77538,0l0,-109.87494l42.76154,0l0,0.00896c1.86426,-0.11203 3.47309,1.72982 4.70547,5.94234c1.12035,4.01085 1.40268,9.24064 1.3982,12.8661c0.00896,2.65747 -0.121,4.44107 -0.121,4.44107l-0.21959,2.92187l2.9398,0.03137c0.01344,0 6.79381,0.08067 13.44421,1.5909c6.39048,1.38027 11.38724,4.13185 11.85331,7.24642c0.01793,0.27785 0.02241,0.55569 0.01793,0.81561l0,74.0103l-0.00448,0z"/>
  <path transform="rotate(-1.60917 25.2034 70.954)" stroke="#ffffff" id="svg_9" d="m19.27451,31.8708l11.85783,-3.35158l0,84.86962l-11.81383,-1.8517l-0.044,-79.66633z" fill="#ffffff"/>
  <g stroke="null">
   <g stroke="null">
    <path stroke="null" d="m89.23989,36.66526c0.49646,-0.09633 1.01515,0 1.44493,0.25935c0.73358,0.3038 1.25227,1.02256 1.25227,1.86729l0.42236,58.96776c0.03705,0.72617 -0.31862,1.44493 -0.98551,1.83765l-24.08208,14.36774c-0.34085,0.25935 -0.76322,0.40754 -1.22263,0.40754c-0.11115,0 -0.2223,-0.00741 -0.32603,-0.02964l-62.49486,-6.95046c-1.07443,-0.04446 -1.93398,-0.93364 -1.93398,-2.0229l0,-59.9681l0,0c-0.02223,-0.80027 0.42977,-1.5783 1.21522,-1.91916l31.35117,-13.78236l0,0c0.32603,-0.1482 0.69653,-0.20748 1.08184,-0.15561l54.27731,7.12089l0,0zm-21.13296,17.95412l0,54.13653l20.19931,-12.04845l-0.39272,-54.57371l-19.80659,12.48563l0,0zm-4.06802,55.44807l0,-54.87751l-26.65331,-3.40113l-0.87436,25.46773l-9.35867,-6.37249l-9.35867,5.29065l1.93398,-26.63849l-14.34551,-1.83024l0,55.84821l58.65655,6.51328l0,0zm-4.21622,-73.17249l-19.65839,11.15927l25.57147,3.26034l17.92448,-11.29265l-23.83756,-3.12697l0,0zm-37.59028,8.86962l19.05819,-11.30006l-6.28357,-0.8225l-24.25251,10.66281l11.47789,1.45974l0,0z"/>
   </g>
  </g>
 </g>
</svg>
