<?xml version="1.0" encoding="utf-8"?><svg version="1.1" id="Layer_1" xmlns="http://www.w3.org/2000/svg" xmlns:xlink="http://www.w3.org/1999/xlink" x="0px" y="0px" viewBox="0 0 105.29 122.88" style="enable-background:new 0 0 105.29 122.88" xml:space="preserve"><style type="text/css">.st0{fill-rule:evenodd;clip-rule:evenodd;}</style>

 <g>
  <title>Layer 1</title>
  <path id="svg_4" d="m95.20588,15.58145c-7.81556,-7.59149 -16.24508,-13.67275 -23.15988,-14.50181c-0.37644,-0.05378 -0.76632,-0.08515 -1.17861,-0.09411l-45.50864,0c-0.72599,0 -1.44301,0.28233 -1.95389,0.80665c-0.5064,0.51088 -0.80665,1.2279 -0.80665,1.95837l0,115.39602c0,0.72599 0.28233,1.4206 0.80665,1.94941c0.52432,0.51984 1.21446,0.80217 1.95389,0.80217l82.29646,0c0.72599,0 1.4206,-0.27785 1.94493,-0.80217c0.52432,-0.52432 0.81562,-1.21894 0.81562,-1.94941l0,-76.78877c-0.16133,-8.9135 -7.14335,-18.63366 -15.20988,-26.77636zm9.67983,100.79114l-76.77538,0l0,-109.87494l42.76154,0l0,0.00896c1.86426,-0.11203 3.47309,1.72982 4.70547,5.94234c1.12035,4.01085 1.40268,9.24064 1.3982,12.8661c0.00896,2.65747 -0.121,4.44107 -0.121,4.44107l-0.21959,2.92187l2.9398,0.03137c0.01344,0 6.79381,0.08067 13.44421,1.5909c6.39048,1.38027 11.38724,4.13185 11.85331,7.24642c0.01793,0.27785 0.02241,0.55569 0.01793,0.81561l0,74.0103l-0.00448,0z"/>
  <path id="svg_14" d="m29.96454,35.22667l-9.81303,0.07636l0,76.9697l10.30303,-0.30303l-0.49,-76.74303z" stroke="#ffffff" fill="#ffffff"/>
  <g stroke="null">
   <g stroke="null">
    <path stroke="null" clip-rule="evenodd" fill-rule="evenodd" d="m11.2129,109.77882l68.1224,0c4.40319,0 10.01993,-5.66593 8.97858,-9.94613l-11.43026,-46.97559c-2.47628,-10.18392 -5.93652,-15.75966 -17.23559,-15.75966l-8.69979,0c5.19856,-2.24669 8.83918,-7.42065 8.83918,-13.43917c0,-8.08482 -6.55149,-14.63631 -14.63631,-14.63631c-8.08482,0 -14.63631,6.55149 -14.63631,14.63631c0,6.02672 3.64063,11.20067 8.83918,13.43917l-7.66664,0c-11.25807,0 -15.98925,6.3301 -18.30974,16.03845l-11.15148,46.6968c-1.01675,4.2802 4.58358,9.94613 8.98678,9.94613l0,0zm21.48299,-42.00663l3.64063,0l0,4.68198l3.82102,-4.68198l4.85417,0l-4.313,4.64918l4.50979,7.73224l-4.48519,0l-2.49268,-5.08376l-1.89411,2.0663l0,3.01746l-3.64063,0l0,-12.38142l0,0zm18.84271,7.90443l0,-2.57468l5.64133,0l0,5.26415c-1.08235,0.77076 -2.0335,1.30374 -2.86167,1.58253c-0.82816,0.27879 -1.81211,0.41818 -2.95186,0.41818c-1.40213,0 -2.54188,-0.25419 -3.42744,-0.75436c-0.88556,-0.50018 -1.56613,-1.24634 -2.0499,-2.23849c-0.48378,-0.99215 -0.72977,-2.1237 -0.72977,-3.41104c0,-1.35294 0.27059,-2.52548 0.79536,-3.52583c0.53297,-1.00035 1.31194,-1.75472 2.33689,-2.27129c0.80356,-0.40178 1.87771,-0.59857 3.23065,-0.59857c1.30374,0 2.27949,0.12299 2.92726,0.36898c0.64777,0.24599 1.18074,0.63137 1.60712,1.15615c0.42638,0.52478 0.74616,1.18074 0.95935,1.98431l-3.50944,0.66417c-0.14759,-0.46738 -0.39358,-0.82816 -0.73797,-1.07415c-0.34438,-0.25419 -0.78716,-0.37718 -1.32834,-0.37718c-0.79536,0 -1.43493,0.28699 -1.91051,0.87736c-0.47558,0.58217 -0.71337,1.50873 -0.71337,2.76327c0,1.33654 0.23779,2.29589 0.72157,2.86987c0.47558,0.57397 1.14795,0.86096 2.00891,0.86096c0.40998,0 0.79536,-0.0574 1.16435,-0.18039c0.36898,-0.12299 0.79536,-0.33618 1.27094,-0.63137l0,-1.15615l-2.44349,0l0,-0.0164zm-6.26451,-23.10651c11.68445,0 21.15501,9.47055 21.15501,21.15501s-9.47055,21.15501 -21.15501,21.15501c-11.68445,0 -21.15501,-9.47055 -21.15501,-21.15501s9.47875,-21.15501 21.15501,-21.15501l0,0zm-0.12299,-35.01235c3.37004,0 6.10051,2.73047 6.10051,6.10051c0,3.37004 -2.73047,6.10051 -6.10051,6.10051c-3.37004,0 -6.10051,-2.73047 -6.10051,-6.10051c0.0082,-3.37004 2.73867,-6.10051 6.10051,-6.10051l0,0z" class="st0"/>
   </g>
  </g>
 </g>
</svg>
