<svg width="105.29" height="122.88" xmlns="http://www.w3.org/2000/svg" xml:space="preserve" version="1.1">

 <g>
  <title>Layer 1</title>
  <g stroke="null" id="svg_1">
   <path stroke="null" id="svg_2" clip-rule="evenodd" fill-rule="evenodd" d="m17.42438,112.05529l47.49161,0c3.06969,0 6.98541,-3.95001 6.25943,-6.93396l-7.96862,-32.74909c-1.72634,-7.09973 -4.13865,-10.98686 -12.01581,-10.98686l-6.06507,0c3.62418,-1.56629 6.16225,-5.17332 6.16225,-9.36913c0,-5.63634 -4.56738,-10.20372 -10.20372,-10.20372c-5.63634,0 -10.20372,4.56738 -10.20372,10.20372c0,4.20153 2.53807,7.80856 6.16225,9.36913l-5.34481,0c-7.84858,0 -11.14692,4.41304 -12.76466,11.18122l-7.77426,32.55473c-0.70883,2.98395 3.19545,6.93396 6.26514,6.93396l0,0zm14.97689,-29.28497l2.53807,0l0,3.26405l2.66383,-3.26405l3.38409,0l-3.00681,3.24118l3.144,5.39054l-3.12685,0l-1.73778,-3.54415l-1.32048,1.44053l0,2.10362l-2.53807,0l0,-8.63172l0,0zm13.13622,5.51058l0,-1.79494l3.93286,0l0,3.66991c-0.75456,0.53734 -1.41766,0.9089 -1.99501,1.10326c-0.57735,0.19436 -1.26332,0.29153 -2.05789,0.29153c-0.9775,0 -1.77207,-0.17721 -2.38944,-0.52591c-0.61737,-0.3487 -1.09183,-0.86889 -1.42909,-1.56057c-0.33727,-0.69168 -0.50876,-1.48054 -0.50876,-2.37801c0,-0.9432 0.18864,-1.76064 0.55449,-2.45804c0.37156,-0.6974 0.91462,-1.2233 1.62917,-1.58343c0.5602,-0.2801 1.30905,-0.4173 2.25225,-0.4173c0.9089,0 1.58915,0.08575 2.04074,0.25724c0.45159,0.17149 0.82316,0.44016 1.12041,0.80601c0.29725,0.36585 0.52019,0.82316 0.66882,1.38336l-2.44661,0.46303c-0.10289,-0.32583 -0.27439,-0.57735 -0.51447,-0.74884c-0.24009,-0.17721 -0.54877,-0.26295 -0.92605,-0.26295c-0.55449,0 -1.00036,0.20007 -1.33191,0.61165c-0.33155,0.40586 -0.49732,1.05181 -0.49732,1.92642c0,0.93177 0.16577,1.60058 0.50304,2.00073c0.33155,0.40015 0.80029,0.60022 1.40051,0.60022c0.28582,0 0.55449,-0.04001 0.81172,-0.12576c0.25724,-0.08575 0.55449,-0.23437 0.88604,-0.44016l0,-0.80601l-1.70348,0l0,-0.01143zm-4.36731,-16.10873c8.14583,0 14.74824,6.60241 14.74824,14.74824s-6.60241,14.74824 -14.74824,14.74824c-8.14583,0 -14.74824,-6.60241 -14.74824,-14.74824s6.60812,-14.74824 14.74824,-14.74824l0,0zm-0.08575,-24.4089c2.34943,0 4.25298,1.90355 4.25298,4.25298c0,2.34943 -1.90355,4.25298 -4.25298,4.25298c-2.34943,0 -4.25298,-1.90355 -4.25298,-4.25298c0.00572,-2.34943 1.90927,-4.25298 4.25298,-4.25298l0,0z" class="st0"/>
  </g>
  <path id="svg_7" d="m43.40788,27.82063l5.788,-5.79004l15.85612,15.85408l26.43165,-26.42346l5.79004,5.78595l-32.22169,32.2176" stroke="#000" fill="#000000"/>
 </g>
</svg>