<?xml version="1.0" encoding="iso-8859-1"?>
<!-- Generator: Adobe Illustrator 19.0.0, SVG Export Plug-In . SVG Version: 6.00 Build 0)  -->
<svg version="1.1" id="Layer_1" xmlns="http://www.w3.org/2000/svg" xmlns:xlink="http://www.w3.org/1999/xlink" x="0px" y="0px"
	 viewBox="0 0 511.999 511.999" style="enable-background:new 0 0 511.999 511.999;" xml:space="preserve">
<g>
	<g>
		<path d="M475.289,408.674V270.954v-51.237h21.5V189.3h-21.501V82.606V0h-30.417v82.606h-76.277V20.68H169.555v35.776H67.127V0
			H36.71v56.455V189.3H15.209v30.417H36.71v36.859v152.098H15.209v30.417H36.71v72.908h30.417v-72.908h121.682h30.417h87.926h30.417
			h107.303v72.908h30.417v-72.908h21.501v-30.417H475.289z M199.972,56.455v-5.359h53.893V87.16h30.417V51.097h53.894v31.509V189.3
			H199.972V56.455z M67.127,86.872h36.006v36.064h30.417V86.872h36.006V189.3H67.127V86.872z M188.809,290.333v118.341H67.127
			V286.994h45.632v36.064h30.417v-36.064h45.633V290.333z M307.15,408.674h-87.925v-87.925h28.753v36.064h30.417v-36.064h28.754
			V408.674z M444.871,408.674H337.568V301.371h38.443v36.064h30.417v-36.064h38.443V408.674z M444.871,270.953H307.15v0.001v19.379
			h-87.926v-33.757H67.127v-36.859h102.428h30.417h138.205h30.417h76.277V270.953z M444.871,189.3h-76.277v-76.277h22.93v36.064
			h30.417v-36.064h22.929V189.3z"/>
	</g>
</g>
<g>
</g>
<g>
</g>
<g>
</g>
<g>
</g>
<g>
</g>
<g>
</g>
<g>
</g>
<g>
</g>
<g>
</g>
<g>
</g>
<g>
</g>
<g>
</g>
<g>
</g>
<g>
</g>
<g>
</g>
</svg>
