<?xml version="1.0" encoding="utf-8"?>
<!-- Svg Vector Icons : http://www.onlinewebfonts.com/icon -->
<!DOCTYPE svg PUBLIC "-//W3C//DTD SVG 1.1//EN" "http://www.w3.org/Graphics/SVG/1.1/DTD/svg11.dtd">
<svg version="1.1" xmlns="http://www.w3.org/2000/svg" xmlns:xlink="http://www.w3.org/1999/xlink" x="0px" y="0px" viewBox="0 0 1000 1000" enable-background="new 0 0 1000 1000" xml:space="preserve">
<metadata> Svg Vector Icons : http://www.onlinewebfonts.com/icon </metadata>
<g><g><g><path d="M851.1,526.4c-5.8-2.4-12.4-1.1-16.8,3.4l-27.6,27.6V359.4c0-55.4-33-106.1-83-129.4V93.6c1.9-2.5,3.6-5.3,3.6-8.7V25.5c0-8.6-6.9-15.5-15.5-15.5h-3.6H619h-3.7c-8.5,0-15.4,6.9-15.4,15.5v59.4c0,3.5,1.7,6.3,3.7,8.9V230c-50,23.2-82.9,73.9-82.9,129.4v179.3l-9-9c-2.8-2.8-7.1-4.1-11.3-4.2V408.3c0-21.9-9.8-41.1-24.7-54.8c14.5-8.3,24.7-23.4,24.7-41.3c0-26.5-21.6-48.2-48.2-48.2H235.1c-26.6,0-48.3,21.6-48.3,48.2c0,17.9,10.2,32.9,24.7,41.2c-15,13.7-24.7,33-24.7,54.8v142.4l-21.1-21.1c-4.5-4.5-11.1-5.8-16.9-3.4c-5.8,2.3-9.5,7.9-9.5,14.3v433.9c0,8.6,6.9,15.5,15.5,15.5h689.8c8.5,0,15.4-6.9,15.5-15.5l0.6-434C860.7,534.4,856.9,528.7,851.1,526.4z M829.2,959.2H170.2V577.9l16.6,16.6l15.5,15.5l15.4,15.4l11.8,11.8c5.8,5.7,16.1,5.7,21.8,0l75.6-75.7l75.6,75.7c5.8,5.7,16.1,5.7,21.9,0l44.8-44.9l15.5-15.5l15.2-15.1l0.3,0.3l20.4,20.4l30.9,30.8l19.9,19.9l3.9,4c5.8,5.9,16.1,5.8,21.8,0l4-4l71.6-71.8l71.7,71.8l4,4c5.8,5.8,16.1,5.8,21.8,0l3.9-4h1.3v-1.3l30.9-31l23-23L829.2,959.2z M217.7,312.2c0-9.5,7.8-17.2,17.4-17.2H452c9.6,0,17.3,7.7,17.3,17.2c0,9.5-7.7,17.3-17.3,17.3H235.1C225.5,329.6,217.7,321.8,217.7,312.2z M261.7,364.3h163.6c24.2,0,44,19.7,44,44v45.2H217.8v-45.2C217.7,384.1,237.4,364.3,261.7,364.3z M217.7,484.4h251.6v64.3l-55.7,55.7l-74.7-74.8c-5.8-5.8-17.9-5.8-23.7,0l-74.7,74.8l-22.7-22.7L217.7,484.4L217.7,484.4z M634.4,40.9h58.4v28.6h-58.4V40.9z M551.5,359.3c0-46.3,29.3-88.3,72.9-104.6c6.1-2.3,10.1-8,10.1-14.5V100.4h58.4v139.8c0,6.5,4,12.2,10,14.5c43.6,16.4,72.9,58.4,72.9,104.7v17.4H551.5V359.3z M551.5,407.6h224.3v180.6l-16.2,16.2l-74.7-74.8c-5.9-5.8-18.1-5.8-23.8,0l-74.7,74.8l-34.8-34.8L551.5,407.6L551.5,407.6L551.5,407.6z"/><path d="M742.3,691.7L742.3,691.7c-8.6,0-15.5,6.9-15.5,15.4l-0.1,65l-0.1,30.8l-0.2,74.2H273.2v-74.2v-15.5V772v-65c0-8.5-6.9-15.4-15.5-15.4c-8.5,0-15.5,7-15.5,15.4v59.9v16.5v15.5v93.7c0,8.5,6.9,15.5,15.5,15.5h484c8.5,0,15.4-6.9,15.5-15.5l0.2-89.7l0-30.8l0.2-64.9C757.7,698.6,750.8,691.7,742.3,691.7z"/></g></g><g></g><g></g><g></g><g></g><g></g><g></g><g></g><g></g><g></g><g></g><g></g><g></g><g></g><g></g><g></g></g>
</svg>